<?xml version="1.0" encoding="UTF-8"?>
<svg id="Capa_2" data-name="Capa 2" xmlns="http://www.w3.org/2000/svg" viewBox="0 0 360 648">
  <defs>
    <style>
      .cls-1, .cls-2 {
        stroke-width: 0px;
      }

      .cls-2 {
        fill: #fff;
      }
    </style>
  </defs>
  <g id="Capa_1-2" data-name="Capa 1">
    <g>
      <path class="cls-1" d="m27,646c-13.79,0-25-11.21-25-25v-39c0-13.79,11.21-25,25-25h15v-17.62c0-11.79,9.59-21.38,21.38-21.38h4.62v-8.38c0-9.25,5.54-17.48,14.12-20.96l1.14-.46,16.86-198.35-1.05-.65c-22.2-13.62-40.76-32.76-53.69-55.35-13.33-23.29-20.37-49.86-20.37-76.86C25,71.53,94.53,2,180,2s155,69.53,155,155c0,26.99-7.04,53.57-20.37,76.86-12.93,22.59-31.49,41.73-53.69,55.35l-1.05.65,16.86,198.35,1.14.46c8.58,3.48,14.12,11.71,14.12,20.96v8.38h4.62c11.79,0,21.38,9.59,21.38,21.38v17.62h15c13.79,0,25,11.21,25,25v39c0,13.79-11.21,25-25,25H27Z"/>
      <path class="cls-2" d="m180,4c40.87,0,79.29,15.91,108.19,44.81,28.9,28.9,44.81,67.32,44.81,108.19,0,26.64-6.95,52.88-20.1,75.86-12.76,22.3-31.09,41.19-53,54.64l-2.1,1.29.21,2.46,16.65,195.9.21,2.44,2.27.92c7.82,3.18,12.87,10.68,12.87,19.11v10.38h6.62c10.68,0,19.38,8.69,19.38,19.38v19.62h17c12.68,0,23,10.32,23,23v39c0,12.68-10.32,23-23,23H27c-12.68,0-23-10.32-23-23v-39c0-12.68,10.32-23,23-23h17v-19.62c0-10.68,8.69-19.38,19.38-19.38h6.62v-10.38c0-8.43,5.05-15.94,12.87-19.11l2.27-.92.21-2.44,16.65-195.9.21-2.46-2.1-1.29c-21.91-13.45-40.24-32.34-53-54.64-13.15-22.99-20.11-49.22-20.11-75.86,0-40.87,15.91-79.29,44.81-108.19C100.71,19.91,139.13,4,180,4m0-4C93.29,0,23,70.29,23,157c0,56.66,30.02,106.3,75.01,133.91l-16.65,195.9c-9.01,3.66-15.36,12.49-15.36,22.82v6.38h-2.62c-12.91,0-23.38,10.47-23.38,23.38v15.62h-13c-14.91,0-27,12.09-27,27v39c0,14.91,12.09,27,27,27h306c14.91,0,27-12.09,27-27v-39c0-14.91-12.09-27-27-27h-13v-15.62c0-12.91-10.47-23.38-23.38-23.38h-2.62v-6.38c0-10.32-6.36-19.16-15.36-22.82l-16.65-195.9c45-27.61,75.01-77.25,75.01-133.91C337,70.29,266.71,0,180,0h0Z"/>
    </g>
  </g>
</svg>